<svg xmlns="http://www.w3.org/2000/svg" xmlns:xlink="http://www.w3.org/1999/xlink" viewBox="0 0 163.39 45.49"><defs><style>.cls-1{fill:url(#Degradado_sin_nombre_4);}.cls-2{fill:url(#Degradado_sin_nombre_4-2);}.cls-3{fill:url(#Degradado_sin_nombre_4-3);}.cls-4{fill:url(#Degradado_sin_nombre_4-4);}.cls-5{fill:url(#Degradado_sin_nombre_4-5);}.cls-6{fill:url(#Degradado_sin_nombre_4-6);}.cls-7{fill:url(#Degradado_sin_nombre_4-7);}.cls-8{fill:url(#Degradado_sin_nombre_4-8);}.cls-9{fill:url(#Degradado_sin_nombre_4-9);}.cls-10{fill:url(#Degradado_sin_nombre_4-10);}.cls-11{fill:url(#Degradado_sin_nombre_4-11);}.cls-12{fill:url(#Degradado_sin_nombre_4-12);}.cls-13{fill:url(#Degradado_sin_nombre_4-13);}.cls-14{fill:url(#Degradado_sin_nombre_4-14);}.cls-15{fill:url(#Degradado_sin_nombre_4-15);}.cls-16{fill:url(#Degradado_sin_nombre_4-16);}.cls-17{fill:url(#Degradado_sin_nombre_4-17);}.cls-18{fill:url(#Degradado_sin_nombre_4-18);}.cls-19{fill:url(#Degradado_sin_nombre_4-19);}.cls-20{fill:url(#Degradado_sin_nombre_4-20);}.cls-21{fill:url(#Degradado_sin_nombre_4-21);}.cls-22{fill:url(#Degradado_sin_nombre_4-22);}.cls-23{fill:url(#Degradado_sin_nombre_4-23);}.cls-24{fill:url(#Degradado_sin_nombre_4-24);}.cls-25{fill:url(#Degradado_sin_nombre_4-25);}.cls-26{fill:url(#Degradado_sin_nombre_4-26);}.cls-27{fill:#fff;}</style><linearGradient id="Degradado_sin_nombre_4" x1="165.08" y1="100.24" x2="-0.74" y2="101.26" gradientTransform="matrix(1, 0, 0, -1, 0, 122.28)" gradientUnits="userSpaceOnUse"><stop offset="0" stop-color="#fdab2b"/><stop offset="0.51" stop-color="#fd2d4f"/><stop offset="1" stop-color="#f80d76"/></linearGradient><linearGradient id="Degradado_sin_nombre_4-2" x1="165.09" y1="101.66" x2="-0.73" y2="102.68" xlink:href="#Degradado_sin_nombre_4"/><linearGradient id="Degradado_sin_nombre_4-3" x1="107.48" y1="25.45" x2="135.04" y2="20.33" gradientTransform="matrix(1, 0, 0, 1, 0, 0)" xlink:href="#Degradado_sin_nombre_4"/><linearGradient id="Degradado_sin_nombre_4-4" x1="165.1" y1="102.43" x2="-0.73" y2="103.45" xlink:href="#Degradado_sin_nombre_4"/><linearGradient id="Degradado_sin_nombre_4-5" x1="165.08" y1="98.79" x2="-0.75" y2="99.81" xlink:href="#Degradado_sin_nombre_4"/><linearGradient id="Degradado_sin_nombre_4-6" x1="133.11" y1="27.38" x2="164.45" y2="28.11" gradientTransform="matrix(1, 0, 0, 1, 0, 0)" xlink:href="#Degradado_sin_nombre_4"/><linearGradient id="Degradado_sin_nombre_4-7" x1="165.01" y1="87.87" x2="-0.82" y2="88.89" xlink:href="#Degradado_sin_nombre_4"/><linearGradient id="Degradado_sin_nombre_4-8" x1="164.97" y1="81.49" x2="-0.86" y2="82.5" xlink:href="#Degradado_sin_nombre_4"/><linearGradient id="Degradado_sin_nombre_4-9" x1="164.96" y1="79.45" x2="-0.87" y2="80.48" xlink:href="#Degradado_sin_nombre_4"/><linearGradient id="Degradado_sin_nombre_4-10" x1="165.17" y1="114.92" x2="-0.65" y2="115.94" xlink:href="#Degradado_sin_nombre_4"/><linearGradient id="Degradado_sin_nombre_4-11" x1="8.85" y1="12.37" x2="57.01" y2="1.52" gradientTransform="matrix(1, 0, 0, 1, 0, 0)" xlink:href="#Degradado_sin_nombre_4"/><linearGradient id="Degradado_sin_nombre_4-12" x1="27.16" y1="98.36" x2="45.91" y2="98.36" xlink:href="#Degradado_sin_nombre_4"/><linearGradient id="Degradado_sin_nombre_4-13" x1="45.63" y1="25.99" x2="71.12" y2="26.23" gradientTransform="matrix(1, 0, 0, 1, 0, 0)" xlink:href="#Degradado_sin_nombre_4"/><linearGradient id="Degradado_sin_nombre_4-14" x1="104.41" y1="121.61" x2="110.23" y2="121.61" xlink:href="#Degradado_sin_nombre_4"/><linearGradient id="Degradado_sin_nombre_4-15" x1="103.26" y1="119.89" x2="110.79" y2="119.89" xlink:href="#Degradado_sin_nombre_4"/><linearGradient id="Degradado_sin_nombre_4-16" x1="102.92" y1="118.26" x2="110.79" y2="118.26" xlink:href="#Degradado_sin_nombre_4"/><linearGradient id="Degradado_sin_nombre_4-17" x1="102.96" y1="115.85" x2="110.34" y2="115.85" xlink:href="#Degradado_sin_nombre_4"/><linearGradient id="Degradado_sin_nombre_4-18" x1="114.37" y1="120.79" x2="121.4" y2="120.79" xlink:href="#Degradado_sin_nombre_4"/><linearGradient id="Degradado_sin_nombre_4-19" x1="111.33" y1="110.48" x2="120.78" y2="110.48" xlink:href="#Degradado_sin_nombre_4"/><linearGradient id="Degradado_sin_nombre_4-20" x1="113.32" y1="32.64" x2="142.04" y2="19.2" gradientTransform="matrix(1, 0, 0, 1, 0, 0)" xlink:href="#Degradado_sin_nombre_4"/><linearGradient id="Degradado_sin_nombre_4-21" x1="80.36" y1="18.18" x2="98.65" y2="17.81" gradientTransform="matrix(1, 0, 0, 1, 0, 0)" xlink:href="#Degradado_sin_nombre_4"/><linearGradient id="Degradado_sin_nombre_4-22" x1="96.28" y1="23.03" x2="112.13" y2="23.27" gradientTransform="matrix(1, 0, 0, 1, 0, 0)" xlink:href="#Degradado_sin_nombre_4"/><linearGradient id="Degradado_sin_nombre_4-23" x1="151.47" y1="24.64" x2="133.43" y2="18.3" gradientTransform="matrix(1, 0, 0, 1, 0, 0)" xlink:href="#Degradado_sin_nombre_4"/><linearGradient id="Degradado_sin_nombre_4-24" x1="0.02" y1="89.28" x2="7" y2="89.28" xlink:href="#Degradado_sin_nombre_4"/><linearGradient id="Degradado_sin_nombre_4-25" x1="0" y1="82.92" x2="11.31" y2="82.92" xlink:href="#Degradado_sin_nombre_4"/><linearGradient id="Degradado_sin_nombre_4-26" x1="8.51" y1="80.7" x2="15.45" y2="80.7" xlink:href="#Degradado_sin_nombre_4"/></defs><g id="Capa_2" data-name="Capa 2"><g id="Contenido"><g id="Logo_Todo_Color_SN_Simbolo" data-name="Logo Todo Color SN Simbolo"><g id="Logotipo"><g id="Logo"><path class="cls-1" d="M41.63,27.39A21.79,21.79,0,0,1,25,35.83c-9.88,0-16.49-8-14.73-17.88a19.51,19.51,0,0,1,1.21-4.12,30,30,0,0,1,8.73-5.29,30.38,30.38,0,0,1,8.87-2A14.4,14.4,0,0,0,16.72,18c-1.12,6.35,3.12,11.49,9.49,11.49h.94c1.78-.08,3.66-.23,5.62-.47A78.39,78.39,0,0,0,41.63,27.39Z"/><path class="cls-2" d="M73.32,23.13a14.53,14.53,0,0,1-2.15,5.41c-1,.22-2.07.42-3.2.59a40.27,40.27,0,0,1-8.43.31A8.13,8.13,0,0,0,67.22,23a5.36,5.36,0,0,0-5.37-6.55h-.42a18.82,18.82,0,0,0-4.16.68,19.48,19.48,0,0,0-9.36,6.22v-.17c1.24-7,7.93-12.69,14.94-12.69S74.56,16.13,73.32,23.13Z"/><path class="cls-3" d="M136.55,23.1a14,14,0,0,1-.94,3.11,28.16,28.16,0,0,1-6.84,2.64,18.29,18.29,0,0,1-5.58.74,8.17,8.17,0,0,0,7-6.5,5.3,5.3,0,0,0-5.37-6.49,8.16,8.16,0,0,0-7.23,5c-.07.19-.14.37-.2.56l-.06.18a17.75,17.75,0,0,0-.89,5.06,18,18,0,0,0,1.65,7.94,10.58,10.58,0,0,1-2.71-1.2,10.47,10.47,0,0,1-4.56-11l.5-2.94a17.89,17.89,0,0,1,7.93-8.08l.16-.09a14.62,14.62,0,0,1,6.49-1.58C133,10.41,137.78,16.1,136.55,23.1Z"/><path class="cls-4" d="M102.26,3.06l-.56,3.16h-1.57l-.07.4C97.61,6.62,95.41,8,95,10.41h4.44l-1.14,6.5h-4.5L90.42,35.8H87.15c1.67-10.74,2-28.12,10.9-32.33a9.16,9.16,0,0,1,2.64-.42l-.47,2.67h1.06L101.76,3Z"/><polygon class="cls-5" points="108.98 10.43 104.51 35.8 100.91 35.8 105.41 10.43 108.98 10.43"/><path class="cls-6" d="M163.39,10.42l-4.22,24a13,13,0,0,1-.34,1.4,12.64,12.64,0,0,1-.54,1.45,13.66,13.66,0,0,1-12,8.1,8.8,8.8,0,0,1-9.13-8.1h6.71a3.58,3.58,0,0,0,3.46,2.26,5.42,5.42,0,0,0,4.26-2.26,5.29,5.29,0,0,0,1-2.18l0-.21h0a11.49,11.49,0,0,1-2.23.68,10.56,10.56,0,0,1-4.53-5.49,10.15,10.15,0,0,1-.46-4.44,3.6,3.6,0,0,0,3.11,4,3,3,0,0,0,.6,0,5.49,5.49,0,0,0,5.21-4.43l2.57-14.8Z"/><path class="cls-7" d="M7.07,31.93,2.44,36.56a1.42,1.42,0,0,1-2,0l-.11-.09L7,29.86l.07.06a1.42,1.42,0,0,1,0,2Z"/><path class="cls-8" d="M11.31,36.17l-8.9,8.91a1.44,1.44,0,0,1-2,0L.33,45l11-10.83a1.42,1.42,0,0,1,0,2Z"/><path class="cls-9" d="M15.56,40.41l-4.63,4.64a1.43,1.43,0,0,1-1.89.1l6.41-6.84.11.1a1.4,1.4,0,0,1,0,2Z"/><path class="cls-10" d="M30.25,6.5c-.37,0-.76,0-1.19.06"/><path class="cls-11" d="M46,11.73H39A9.32,9.32,0,0,0,30.25,6.5c-.39,0-.79,0-1.19.06h0a30.16,30.16,0,0,0-17.62,7.27C14.69,5.93,22.81.06,31.27.06,39,.06,44.66,4.92,46,11.73Z"/><path class="cls-12" d="M45.91,18.41a20.24,20.24,0,0,1-2,5.57,21.3,21.3,0,0,1-2.25,3.4A77.76,77.76,0,0,1,32.78,29c-2,.23-3.85.38-5.62.46A14.28,14.28,0,0,0,37,24H29.73l1-5.58Z"/><path class="cls-13" d="M71.17,28.54A15.7,15.7,0,0,1,58.4,35.83c-7,0-11.62-5.6-10.5-12.53a19.45,19.45,0,0,1,9.36-6.2,18,18,0,0,1,4.18-.68,8.13,8.13,0,0,0-7.24,6.49,5.3,5.3,0,0,0,5.36,6.5A40.3,40.3,0,0,0,68,29.09,27.32,27.32,0,0,0,71.17,28.54Z"/><path class="cls-14" d="M110.23,1.33h-5.82A4.62,4.62,0,0,1,107.55,0,3.19,3.19,0,0,1,110.23,1.33Z"/><path class="cls-15" d="M110.79,3h-7.53a4.85,4.85,0,0,1,.68-1.13h6.58A3.4,3.4,0,0,1,110.79,3Z"/><path class="cls-16" d="M110.79,3.45a2,2,0,0,1-.05.43,4.35,4.35,0,0,1-.18.71h-7.65a4.25,4.25,0,0,1,.06-.71c0-.14.06-.28.1-.43Z"/><path class="cls-17" d="M110.34,5.09a4.85,4.85,0,0,1-4.16,2.68A3.14,3.14,0,0,1,103,5.09Z"/><polygon class="cls-18" points="121.4 0.01 120.88 2.96 114.37 2.96 114.57 1.82 117.99 1.82 117.99 1.32 114.66 1.32 114.89 0.01 121.4 0.01"/><path class="cls-19" d="M120.78,3.45l-1.5,8.62a17.89,17.89,0,0,0-7.93,8.08L114,5.07h3.39v-.5h-3.33l.2-1.13Z"/><path class="cls-20" d="M135.61,26.21a16,16,0,0,1-14.17,9.59,12.38,12.38,0,0,1-3.36-.46,18,18,0,0,1-1.65-8,17.69,17.69,0,0,1,.89-5.05c-.07.25-.13.51-.18.76a5.82,5.82,0,0,0-.08,1.5,5.24,5.24,0,0,0,5.45,5,5,5,0,0,0,.67,0h0a18.25,18.25,0,0,0,5.58-.74A27.6,27.6,0,0,0,135.61,26.21Z"/><path class="cls-21" d="M102.67.77l-.41,2.29a3.09,3.09,0,0,1-.5,0l.32-1.76H101l-.31,1.78a9.05,9.05,0,0,0-2.64.42c-8.89,4.21-9.24,21.59-10.9,32.33H83.93l3.32-18.88H83.43l1.14-6.5h3.9A12.91,12.91,0,0,1,101.23,0l-.14.77Z"/><polygon class="cls-22" points="105.41 10.43 100.91 35.8 98 35.8 102.48 10.43 105.41 10.43"/><path class="cls-23" d="M150.37,35.54a11.1,11.1,0,0,1-2.37.26,9.85,9.85,0,0,1-4.27-.94h0a8.5,8.5,0,0,1-4.49-5.22,10.18,10.18,0,0,1-.26-4.78l2.55-14.43H148l-2.6,14.78a2.21,2.21,0,0,1,0,.33v.06a10.15,10.15,0,0,0,.46,4.44A10.6,10.6,0,0,0,150.37,35.54Z"/><path class="cls-24" d="M7,29.86.33,36.47a1.41,1.41,0,0,1,.11-1.89L5.07,30A1.41,1.41,0,0,1,7,29.86Z"/><path class="cls-25" d="M11.31,34.16.33,45a1.41,1.41,0,0,1,.08-1.9l8.9-8.91a1.42,1.42,0,0,1,2,0Z"/><path class="cls-26" d="M15.45,38.31,9,45.15l-.12-.1a1.42,1.42,0,0,1,0-2l4.63-4.63A1.41,1.41,0,0,1,15.45,38.31Z"/></g></g><path class="cls-27" d="M23.18,39.5H24L22.8,45.41H22l.51-2.54H19.11l-.51,2.54h-.81L19,39.5h.81l-.53,2.63h3.39Z"/><path class="cls-27" d="M25.62,45.2a1.81,1.81,0,0,1-.66-.71,2.19,2.19,0,0,1-.24-1A2.68,2.68,0,0,1,25,42.16a2.34,2.34,0,0,1,.87-.92,2.42,2.42,0,0,1,1.24-.33,1.87,1.87,0,0,1,1.05.28,1.64,1.64,0,0,1,.6.81L29,40.94h.79l-.89,4.47h-.78l.15-.73a2.14,2.14,0,0,1-1.67.77A1.89,1.89,0,0,1,25.62,45.2Zm2.1-.65a1.76,1.76,0,0,0,.62-.65,1.89,1.89,0,0,0,.23-.91,1.41,1.41,0,0,0-.37-1,1.3,1.3,0,0,0-1-.38,1.65,1.65,0,0,0-.87.24,1.87,1.87,0,0,0-.62.66,1.79,1.79,0,0,0-.23.91,1.37,1.37,0,0,0,.37,1,1.3,1.3,0,0,0,1,.38A1.58,1.58,0,0,0,27.72,44.55Z"/><path class="cls-27" d="M31.41,45.18a1.8,1.8,0,0,1-.7-.72,2.14,2.14,0,0,1-.25-1.05,2.62,2.62,0,0,1,.32-1.29,2.24,2.24,0,0,1,.89-.89,2.58,2.58,0,0,1,1.27-.32,2.48,2.48,0,0,1,1,.18,1.67,1.67,0,0,1,.71.5l-.48.54a1.62,1.62,0,0,0-1.26-.52,1.58,1.58,0,0,0-1.43.84,1.93,1.93,0,0,0-.21.9,1.38,1.38,0,0,0,.37,1,1.27,1.27,0,0,0,1,.39,2.32,2.32,0,0,0,.8-.14,1.52,1.52,0,0,0,.61-.42l.4.47a2.28,2.28,0,0,1-.83.57,2.75,2.75,0,0,1-1.09.21A2.16,2.16,0,0,1,31.41,45.18Z"/><path class="cls-27" d="M37,40.94l-.88,4.47h-.79l.89-4.47Zm.26-1.67a.44.44,0,0,1,.11.3.56.56,0,0,1-.18.42.61.61,0,0,1-.42.18.37.37,0,0,1-.29-.12.44.44,0,0,1-.11-.3.58.58,0,0,1,.18-.42.58.58,0,0,1,.41-.17A.42.42,0,0,1,37.29,39.27Z"/><path class="cls-27" d="M41.63,41.44a1.93,1.93,0,0,1,.52,1.4,3.9,3.9,0,0,1-.07.64H38.47a1.37,1.37,0,0,0,.4,1,1.44,1.44,0,0,0,1,.35,2.08,2.08,0,0,0,.71-.12,1.93,1.93,0,0,0,.6-.33l.36.51a2.45,2.45,0,0,1-1.69.59,2.4,2.4,0,0,1-1.14-.25,1.82,1.82,0,0,1-.76-.72,2.1,2.1,0,0,1-.27-1.07A2.48,2.48,0,0,1,38,42.14a2.38,2.38,0,0,1,.91-.9,2.51,2.51,0,0,1,1.27-.33A1.92,1.92,0,0,1,41.63,41.44Zm-.51.47a1.19,1.19,0,0,0-.92-.34,1.62,1.62,0,0,0-1,.36,1.77,1.77,0,0,0-.62,1h2.9A1.34,1.34,0,0,0,41.12,41.91Z"/><path class="cls-27" d="M47.1,41.27a1.3,1.3,0,0,1,.43,1,2.49,2.49,0,0,1-.05.46L47,45.41h-.8l.51-2.54a1.58,1.58,0,0,0,0-.32.9.9,0,0,0-.27-.69,1.11,1.11,0,0,0-.78-.25,1.47,1.47,0,0,0-1,.38,1.78,1.78,0,0,0-.57,1l-.48,2.4h-.8l.88-4.47h.8l-.15.75a1.9,1.9,0,0,1,1.62-.8A1.72,1.72,0,0,1,47.1,41.27Z"/><path class="cls-27" d="M49.26,45.2a1.76,1.76,0,0,1-.67-.71,2.31,2.31,0,0,1-.23-1,2.67,2.67,0,0,1,.31-1.29,2.43,2.43,0,0,1,.88-.92,2.36,2.36,0,0,1,1.23-.33,1.83,1.83,0,0,1,1,.28,1.53,1.53,0,0,1,.6.81L53,39.14h.79l-1.25,6.27h-.79l.15-.73a2.07,2.07,0,0,1-.74.57,2.25,2.25,0,0,1-.93.2A1.86,1.86,0,0,1,49.26,45.2Zm2.1-.65A1.73,1.73,0,0,0,52,43.9,1.79,1.79,0,0,0,52.2,43a1.37,1.37,0,0,0-.37-1,1.27,1.27,0,0,0-.95-.38,1.63,1.63,0,0,0-.87.24,2,2,0,0,0-.63.66,1.89,1.89,0,0,0-.23.91,1.38,1.38,0,0,0,.38,1,1.27,1.27,0,0,0,1,.38A1.62,1.62,0,0,0,51.36,44.55Z"/><path class="cls-27" d="M57.76,41.17a1.9,1.9,0,0,1,.74.72A2.22,2.22,0,0,1,58.76,43a2.53,2.53,0,0,1-.33,1.29,2.43,2.43,0,0,1-.92.88,2.65,2.65,0,0,1-1.29.32,2.26,2.26,0,0,1-1.1-.26,1.87,1.87,0,0,1-.73-.72,2.2,2.2,0,0,1-.25-1.07,2.52,2.52,0,0,1,.33-1.28,2.38,2.38,0,0,1,.9-.88,2.69,2.69,0,0,1,1.3-.32A2.25,2.25,0,0,1,57.76,41.17Zm-2,.65a1.65,1.65,0,0,0-.6.63,1.83,1.83,0,0,0-.22.91,1.45,1.45,0,0,0,.37,1,1.3,1.3,0,0,0,1,.39,1.61,1.61,0,0,0,.85-.23,1.56,1.56,0,0,0,.6-.62A1.94,1.94,0,0,0,58,43a1.41,1.41,0,0,0-.37-1,1.27,1.27,0,0,0-1-.39A1.63,1.63,0,0,0,55.75,41.82Z"/><path class="cls-27" d="M66.59,40.24h-3l-.39,1.93H65.9l-.14.74H63l-.5,2.5h-.81l1.18-5.91h3.85Z"/><path class="cls-27" d="M67.34,45.2a1.74,1.74,0,0,1-.66-.71,2.19,2.19,0,0,1-.24-1,2.68,2.68,0,0,1,.32-1.29,2.34,2.34,0,0,1,.87-.92,2.4,2.4,0,0,1,1.24-.33,1.87,1.87,0,0,1,1,.28,1.56,1.56,0,0,1,.59.81l.22-1.06h.79l-.89,4.47h-.78l.15-.73a2.2,2.2,0,0,1-.75.57,2.17,2.17,0,0,1-.92.2A1.89,1.89,0,0,1,67.34,45.2Zm2.1-.65a1.76,1.76,0,0,0,.62-.65,1.89,1.89,0,0,0,.23-.91,1.41,1.41,0,0,0-.37-1,1.3,1.3,0,0,0-1-.38,1.63,1.63,0,0,0-.87.24,1.87,1.87,0,0,0-.62.66,1.79,1.79,0,0,0-.23.91,1.37,1.37,0,0,0,.37,1,1.3,1.3,0,0,0,1,.38A1.58,1.58,0,0,0,69.44,44.55Z"/><path class="cls-27" d="M79.88,41.27a1.33,1.33,0,0,1,.43,1,2.49,2.49,0,0,1,0,.46l-.54,2.64h-.79l.51-2.54a1.58,1.58,0,0,0,0-.32.9.9,0,0,0-.27-.69,1.11,1.11,0,0,0-.78-.25,1.48,1.48,0,0,0-1,.35,1.76,1.76,0,0,0-.58.94l-.51,2.51h-.79l.51-2.54a1.58,1.58,0,0,0,0-.32.9.9,0,0,0-.27-.69,1.11,1.11,0,0,0-.78-.25A1.54,1.54,0,0,0,74,42a1.78,1.78,0,0,0-.56,1L73,45.41h-.79l.88-4.47h.8l-.15.75a1.9,1.9,0,0,1,1.61-.8,1.83,1.83,0,0,1,1.07.28,1.18,1.18,0,0,1,.51.8,2,2,0,0,1,1.8-1.08A1.73,1.73,0,0,1,79.88,41.27Z"/><path class="cls-27" d="M82.8,40.94l-.89,4.47h-.78L82,40.94Zm.25-1.67a.4.4,0,0,1,.11.3A.56.56,0,0,1,83,40a.58.58,0,0,1-.42.18.36.36,0,0,1-.28-.12.4.4,0,0,1-.11-.3.58.58,0,0,1,.59-.59A.4.4,0,0,1,83.05,39.27Z"/><path class="cls-27" d="M85.53,39.14l-1.25,6.27h-.8l1.26-6.27Z"/><path class="cls-27" d="M87.52,40.94l-.88,4.47h-.79l.89-4.47Zm.26-1.67a.44.44,0,0,1,.11.3.56.56,0,0,1-.18.42.61.61,0,0,1-.42.18.37.37,0,0,1-.29-.12.44.44,0,0,1-.11-.3.58.58,0,0,1,.18-.42.58.58,0,0,1,.41-.17A.42.42,0,0,1,87.78,39.27Z"/><path class="cls-27" d="M89.07,45.2a1.81,1.81,0,0,1-.66-.71,2.19,2.19,0,0,1-.24-1,2.68,2.68,0,0,1,.32-1.29,2.29,2.29,0,0,1,.88-.92,2.36,2.36,0,0,1,1.23-.33,1.83,1.83,0,0,1,1.05.28,1.58,1.58,0,0,1,.6.81l.22-1.06h.78l-.88,4.47h-.79l.15-.73a2.16,2.16,0,0,1-.74.57,2.25,2.25,0,0,1-.93.2A1.92,1.92,0,0,1,89.07,45.2Zm2.1-.65a1.76,1.76,0,0,0,.62-.65A1.89,1.89,0,0,0,92,43a1.37,1.37,0,0,0-.37-1,1.27,1.27,0,0,0-1-.38,1.62,1.62,0,0,0-.86.24A1.82,1.82,0,0,0,89,43.41a1.37,1.37,0,0,0,.37,1,1.31,1.31,0,0,0,1,.38A1.58,1.58,0,0,0,91.17,44.55Z"/><path class="cls-27" d="M94.31,45.23a2.07,2.07,0,0,1-.83-.61l.36-.53a2,2,0,0,0,.71.52,2.11,2.11,0,0,0,.86.2,1.08,1.08,0,0,0,.62-.17.53.53,0,0,0,.25-.46.49.49,0,0,0-.21-.42,3,3,0,0,0-.65-.32,6,6,0,0,1-.64-.29,1.28,1.28,0,0,1-.4-.37.93.93,0,0,1-.17-.58,1.13,1.13,0,0,1,.44-.94,1.74,1.74,0,0,1,1.15-.36,2.68,2.68,0,0,1,.93.16,2.24,2.24,0,0,1,.76.44l-.38.55a2.57,2.57,0,0,0-.65-.36,2,2,0,0,0-.68-.14.94.94,0,0,0-.57.16.51.51,0,0,0-.23.42.44.44,0,0,0,.22.38,3.06,3.06,0,0,0,.63.31c.26.11.47.21.64.3a1.42,1.42,0,0,1,.43.38,1,1,0,0,1,.18.6,1.24,1.24,0,0,1-.21.71,1.49,1.49,0,0,1-.59.48,2.09,2.09,0,0,1-.86.17A2.87,2.87,0,0,1,94.31,45.23Z"/><path class="cls-27" d="M105.07,40.24h-3l-.38,1.93h2.73l-.14.74h-2.74l-.5,2.5h-.81l1.19-5.91h3.84Z"/><path class="cls-27" d="M108.86,41.44a1.93,1.93,0,0,1,.52,1.4,3.9,3.9,0,0,1-.07.64H105.7a1.37,1.37,0,0,0,.4,1,1.44,1.44,0,0,0,1,.35,2.08,2.08,0,0,0,.71-.12,1.93,1.93,0,0,0,.6-.33l.36.51a2.74,2.74,0,0,1-2.84.34,1.86,1.86,0,0,1-.75-.72,2.1,2.1,0,0,1-.27-1.07,2.48,2.48,0,0,1,.33-1.27,2.38,2.38,0,0,1,.91-.9,2.48,2.48,0,0,1,1.27-.33A1.94,1.94,0,0,1,108.86,41.44Zm-.51.47a1.19,1.19,0,0,0-.92-.34,1.67,1.67,0,0,0-1.05.36,1.75,1.75,0,0,0-.61,1h2.9A1.34,1.34,0,0,0,108.35,41.91Z"/><path class="cls-27" d="M112.08,39.14l-1.25,6.27H110l1.26-6.27Z"/><path class="cls-27" d="M114.07,40.94l-.88,4.47h-.79l.89-4.47Zm.26-1.67a.44.44,0,0,1,.11.3.56.56,0,0,1-.18.42.59.59,0,0,1-.42.18.37.37,0,0,1-.29-.12.44.44,0,0,1-.11-.3.58.58,0,0,1,.18-.42.58.58,0,0,1,.41-.17A.42.42,0,0,1,114.33,39.27Z"/><path class="cls-27" d="M115.69,45.18a1.76,1.76,0,0,1-.71-.72,2.26,2.26,0,0,1-.25-1.05,2.62,2.62,0,0,1,.32-1.29,2.31,2.31,0,0,1,.89-.89,2.74,2.74,0,0,1,2.26-.14,1.8,1.8,0,0,1,.71.5l-.48.54a1.65,1.65,0,0,0-1.26-.52,1.6,1.6,0,0,0-.84.22,1.62,1.62,0,0,0-.6.62,1.93,1.93,0,0,0-.21.9,1.38,1.38,0,0,0,.37,1,1.27,1.27,0,0,0,1,.39,2.28,2.28,0,0,0,.8-.14,1.55,1.55,0,0,0,.62-.42l.39.47a2.28,2.28,0,0,1-.83.57,2.72,2.72,0,0,1-1.09.21A2.1,2.1,0,0,1,115.69,45.18Z"/><path class="cls-27" d="M123.39,41.44a1.89,1.89,0,0,1,.52,1.4,3,3,0,0,1-.07.64h-3.61a1.34,1.34,0,0,0,.41,1,1.42,1.42,0,0,0,1,.35,2.16,2.16,0,0,0,.71-.12,2.19,2.19,0,0,0,.6-.33l.36.51a2.48,2.48,0,0,1-1.7.59,2.45,2.45,0,0,1-1.14-.25,1.82,1.82,0,0,1-.76-.72,2.2,2.2,0,0,1-.26-1.07,2.48,2.48,0,0,1,.33-1.27,2.43,2.43,0,0,1,.9-.9,2.52,2.52,0,0,1,1.28-.33A1.92,1.92,0,0,1,123.39,41.44Zm-.5.47a1.2,1.2,0,0,0-.92-.34,1.63,1.63,0,0,0-1,.36,1.77,1.77,0,0,0-.62,1h2.9A1.33,1.33,0,0,0,122.89,41.91Z"/><path class="cls-27" d="M124.94,45.23a2.07,2.07,0,0,1-.83-.61l.37-.53a1.92,1.92,0,0,0,.7.52,2.11,2.11,0,0,0,.86.2,1.08,1.08,0,0,0,.62-.17.53.53,0,0,0,.25-.46.49.49,0,0,0-.21-.42,3,3,0,0,0-.65-.32,6,6,0,0,1-.64-.29,1.4,1.4,0,0,1-.4-.37,1,1,0,0,1-.17-.58,1.16,1.16,0,0,1,.44-.94,1.74,1.74,0,0,1,1.15-.36,2.77,2.77,0,0,1,.94.16,2.45,2.45,0,0,1,.76.44l-.39.55a2.41,2.41,0,0,0-.65-.36,2,2,0,0,0-.68-.14.94.94,0,0,0-.57.16.5.5,0,0,0-.22.42.43.43,0,0,0,.21.38,3.06,3.06,0,0,0,.63.31,6.77,6.77,0,0,1,.64.3,1.46,1.46,0,0,1,.44.38,1.06,1.06,0,0,1,.17.6,1.24,1.24,0,0,1-.21.71,1.49,1.49,0,0,1-.59.48,2.08,2.08,0,0,1-.85.17A2.88,2.88,0,0,1,124.94,45.23Z"/></g></g></g></svg>